<svg xmlns="http://www.w3.org/2000/svg" xmlns:xlink="http://www.w3.org/1999/xlink" width="522" zoomAndPan="magnify" viewBox="0 0 391.5 275.999989" height="368" preserveAspectRatio="xMidYMid meet" version="1.0"><defs><clipPath id="926b0bc1a8"><path d="M 164.925781 174 L 217 174 L 217 240 L 164.925781 240 Z M 164.925781 174 " clip-rule="nonzero"/></clipPath><clipPath id="2f978ee5cb"><path d="M 183 128 L 374 128 L 374 275.492188 L 183 275.492188 Z M 183 128 " clip-rule="nonzero"/></clipPath><clipPath id="15c9b22965"><path d="M 172 100.214844 L 385 100.214844 L 385 223 L 172 223 Z M 172 100.214844 " clip-rule="nonzero"/></clipPath></defs><g clip-path="url(#926b0bc1a8)"><path fill="#6a1b1a" d="M 190.632812 174.308594 C 204.871094 174.308594 216.335938 185.773438 216.335938 200.011719 L 216.335938 214.167969 C 216.335938 228.410156 204.871094 239.875 190.632812 239.875 C 176.390625 239.875 164.925781 228.410156 164.925781 214.167969 L 164.925781 200.011719 C 164.925781 185.773438 176.390625 174.308594 190.632812 174.308594 Z M 190.632812 174.308594 " fill-opacity="1" fill-rule="nonzero"/></g><path fill="#6a1b1a" d="M 365.199219 174.308594 C 379.441406 174.308594 390.90625 185.773438 390.90625 200.011719 L 390.90625 214.167969 C 390.90625 228.410156 379.441406 239.875 365.199219 239.875 C 350.960938 239.875 339.496094 228.410156 339.496094 214.167969 L 339.496094 200.011719 C 339.496094 185.773438 350.960938 174.308594 365.199219 174.308594 Z M 365.199219 174.308594 " fill-opacity="1" fill-rule="nonzero"/><path fill="#6a1b1a" d="M 245.804688 140.738281 C 245.804688 126.5 257.269531 115.035156 271.511719 115.035156 L 285.667969 115.035156 C 299.90625 115.035156 311.371094 126.5 311.371094 140.738281 C 311.371094 154.980469 299.90625 166.445312 285.667969 166.445312 L 271.511719 166.445312 C 257.269531 166.445312 245.804688 154.980469 245.804688 140.738281 Z M 245.804688 140.738281 " fill-opacity="1" fill-rule="nonzero"/><g clip-path="url(#2f978ee5cb)"><path fill="#e6b000" d="M 373.421875 201.894531 C 373.421875 242.574219 354.144531 275.554688 278.589844 275.554688 C 209.355469 275.554688 183.757812 242.574219 183.757812 201.894531 C 183.757812 161.214844 226.214844 128.234375 278.589844 128.234375 C 330.960938 128.234375 373.421875 161.214844 373.421875 201.894531 Z M 373.421875 201.894531 " fill-opacity="1" fill-rule="nonzero"/></g><path fill="#2f3e9e" d="M 354.589844 201.894531 C 354.589844 227.195312 339.140625 247.703125 278.589844 247.703125 C 223.101562 247.703125 202.585938 227.195312 202.585938 201.894531 C 202.585938 176.59375 236.613281 156.085938 278.589844 156.085938 C 320.5625 156.085938 354.589844 176.59375 354.589844 201.894531 Z M 354.589844 201.894531 " fill-opacity="1" fill-rule="nonzero"/><path fill="#e0f3ff" d="M 278.589844 153.800781 C 257.230469 153.800781 237.863281 158.992188 223.667969 167.546875 C 209.476562 176.101562 200.304688 188.222656 200.304688 201.894531 C 200.304688 215.160156 205.863281 227.492188 218.488281 236.167969 C 231.113281 244.84375 250.5625 249.988281 278.589844 249.988281 C 309.121094 249.988281 328.59375 244.867188 340.636719 236.136719 C 352.679688 227.402344 356.871094 215.007812 356.871094 201.894531 C 356.871094 188.222656 347.699219 176.101562 333.507812 167.546875 C 319.3125 158.992188 299.945312 153.800781 278.589844 153.800781 Z M 278.589844 158.367188 C 299.203125 158.367188 317.835938 163.433594 331.148438 171.457031 C 344.464844 179.484375 352.304688 190.269531 352.304688 201.894531 C 352.304688 214.082031 348.773438 224.59375 337.957031 232.4375 C 327.136719 240.285156 308.605469 245.421875 278.589844 245.421875 C 251.125 245.421875 232.578125 240.308594 221.074219 232.40625 C 209.570312 224.5 204.871094 213.925781 204.871094 201.894531 C 204.871094 190.269531 212.710938 179.484375 226.027344 171.457031 C 239.339844 163.433594 257.972656 158.367188 278.589844 158.367188 Z M 278.589844 158.367188 " fill-opacity="1" fill-rule="nonzero"/><path fill="#ffffff" d="M 258.679688 199.855469 C 258.679688 200.765625 258.625 201.664062 258.511719 202.554688 C 258.402344 203.445312 258.234375 204.308594 258.019531 205.148438 C 257.800781 205.988281 257.53125 206.785156 257.214844 207.539062 C 256.898438 208.292969 256.539062 208.992188 256.132812 209.636719 C 255.730469 210.277344 255.292969 210.851562 254.816406 211.355469 C 254.34375 211.859375 253.84375 212.285156 253.316406 212.632812 C 252.789062 212.980469 252.246094 213.242188 251.683594 213.421875 C 251.125 213.597656 250.558594 213.6875 249.988281 213.6875 C 249.417969 213.6875 248.851562 213.597656 248.292969 213.421875 C 247.734375 213.242188 247.191406 212.980469 246.664062 212.632812 C 246.136719 212.285156 245.636719 211.859375 245.160156 211.355469 C 244.6875 210.851562 244.246094 210.277344 243.84375 209.636719 C 243.441406 208.992188 243.078125 208.292969 242.761719 207.539062 C 242.445312 206.785156 242.179688 205.988281 241.960938 205.148438 C 241.742188 204.308594 241.578125 203.445312 241.464844 202.554688 C 241.355469 201.664062 241.296875 200.765625 241.296875 199.855469 C 241.296875 198.949219 241.355469 198.050781 241.464844 197.160156 C 241.578125 196.269531 241.742188 195.402344 241.960938 194.566406 C 242.179688 193.726562 242.445312 192.929688 242.761719 192.175781 C 243.078125 191.417969 243.441406 190.722656 243.84375 190.078125 C 244.246094 189.4375 244.6875 188.863281 245.160156 188.359375 C 245.636719 187.855469 246.136719 187.429688 246.664062 187.082031 C 247.191406 186.734375 247.734375 186.472656 248.292969 186.292969 C 248.851562 186.117188 249.417969 186.027344 249.988281 186.027344 C 250.558594 186.027344 251.125 186.117188 251.683594 186.292969 C 252.242188 186.472656 252.789062 186.734375 253.316406 187.082031 C 253.84375 187.429688 254.34375 187.855469 254.816406 188.359375 C 255.292969 188.863281 255.730469 189.4375 256.132812 190.078125 C 256.539062 190.722656 256.898438 191.417969 257.214844 192.175781 C 257.53125 192.929688 257.800781 193.726562 258.019531 194.566406 C 258.234375 195.402344 258.402344 196.269531 258.511719 197.160156 C 258.625 198.050781 258.679688 198.949219 258.679688 199.855469 Z M 258.679688 199.855469 " fill-opacity="1" fill-rule="nonzero"/><path fill="#ffffff" d="M 314.53125 199.855469 C 314.53125 200.765625 314.476562 201.664062 314.367188 202.554688 C 314.253906 203.445312 314.089844 204.308594 313.871094 205.148438 C 313.652344 205.988281 313.386719 206.785156 313.066406 207.539062 C 312.75 208.292969 312.390625 208.992188 311.988281 209.636719 C 311.585938 210.277344 311.144531 210.851562 310.671875 211.355469 C 310.195312 211.859375 309.695312 212.285156 309.167969 212.632812 C 308.640625 212.980469 308.097656 213.242188 307.539062 213.421875 C 306.976562 213.597656 306.414062 213.6875 305.84375 213.6875 C 305.273438 213.6875 304.707031 213.597656 304.148438 213.421875 C 303.585938 213.242188 303.042969 212.980469 302.515625 212.632812 C 301.988281 212.285156 301.488281 211.859375 301.015625 211.355469 C 300.539062 210.851562 300.101562 210.277344 299.695312 209.636719 C 299.292969 208.992188 298.933594 208.292969 298.617188 207.539062 C 298.300781 206.785156 298.03125 205.988281 297.8125 205.148438 C 297.59375 204.308594 297.429688 203.445312 297.320312 202.554688 C 297.207031 201.664062 297.152344 200.765625 297.152344 199.855469 C 297.152344 198.949219 297.207031 198.050781 297.320312 197.160156 C 297.429688 196.269531 297.59375 195.402344 297.8125 194.566406 C 298.03125 193.726562 298.300781 192.929688 298.617188 192.175781 C 298.933594 191.417969 299.292969 190.722656 299.695312 190.078125 C 300.101562 189.4375 300.539062 188.863281 301.015625 188.359375 C 301.488281 187.855469 301.988281 187.429688 302.515625 187.082031 C 303.042969 186.734375 303.585938 186.472656 304.148438 186.292969 C 304.707031 186.117188 305.269531 186.027344 305.84375 186.027344 C 306.414062 186.027344 306.976562 186.117188 307.539062 186.292969 C 308.097656 186.472656 308.640625 186.734375 309.167969 187.082031 C 309.695312 187.429688 310.195312 187.855469 310.671875 188.359375 C 311.144531 188.863281 311.582031 189.4375 311.988281 190.078125 C 312.390625 190.722656 312.75 191.417969 313.066406 192.175781 C 313.386719 192.929688 313.652344 193.726562 313.871094 194.566406 C 314.089844 195.402344 314.253906 196.269531 314.367188 197.160156 C 314.476562 198.050781 314.53125 198.949219 314.53125 199.855469 Z M 314.53125 199.855469 " fill-opacity="1" fill-rule="nonzero"/><g clip-path="url(#15c9b22965)"><path fill="#6a1b1a" d="M 278.023438 100.375 C 258.375 100.480469 238.753906 106.03125 221.53125 117.019531 C 187.078125 138.988281 168.300781 178.808594 173.257812 219.367188 C 173.3125 219.800781 173.445312 220.207031 173.660156 220.585938 C 173.875 220.964844 174.15625 221.292969 174.5 221.5625 C 174.84375 221.828125 175.226562 222.023438 175.644531 222.140625 C 176.066406 222.257812 176.496094 222.289062 176.929688 222.234375 C 177.363281 222.183594 177.769531 222.050781 178.148438 221.835938 C 178.53125 221.621094 178.855469 221.339844 179.125 220.996094 C 179.394531 220.652344 179.585938 220.269531 179.703125 219.847656 C 179.820312 219.425781 179.851562 219 179.800781 218.566406 C 175.144531 180.511719 192.75 143.1875 225.074219 122.574219 C 257.394531 101.960938 298.664062 101.738281 331.203125 122.007812 C 363.746094 142.273438 381.746094 179.410156 377.5 217.511719 C 377.453125 217.945312 377.488281 218.371094 377.609375 218.792969 C 377.730469 219.210938 377.929688 219.589844 378.203125 219.933594 C 378.472656 220.273438 378.800781 220.550781 379.183594 220.761719 C 379.566406 220.972656 379.976562 221.101562 380.410156 221.148438 C 380.84375 221.199219 381.269531 221.160156 381.691406 221.039062 C 382.109375 220.917969 382.492188 220.722656 382.832031 220.449219 C 383.171875 220.175781 383.449219 219.847656 383.660156 219.464844 C 383.871094 219.082031 384 218.675781 384.050781 218.238281 C 388.574219 177.632812 369.371094 138.015625 334.6875 116.414062 C 317.347656 105.613281 297.671875 100.269531 278.023438 100.375 Z M 278.023438 100.375 " fill-opacity="1" fill-rule="nonzero"/></g><path fill="#6a1b1a" d="M 177.097656 193.210938 C 176.667969 193.136719 176.238281 193.144531 175.8125 193.242188 C 175.386719 193.335938 174.992188 193.507812 174.636719 193.757812 C 174.277344 194.011719 173.980469 194.320312 173.75 194.6875 C 173.511719 195.058594 173.359375 195.457031 173.28125 195.886719 C 173.28125 195.886719 170.183594 213.800781 182.214844 231.410156 C 194.246094 249.019531 221.117188 265.941406 278.589844 265.941406 C 279.023438 265.941406 279.445312 265.859375 279.847656 265.691406 C 280.253906 265.523438 280.609375 265.285156 280.917969 264.976562 C 281.226562 264.667969 281.464844 264.3125 281.632812 263.90625 C 281.800781 263.503906 281.882812 263.085938 281.882812 262.648438 C 281.882812 262.210938 281.800781 261.789062 281.632812 261.386719 C 281.464844 260.980469 281.226562 260.625 280.917969 260.316406 C 280.609375 260.007812 280.253906 259.769531 279.847656 259.601562 C 279.445312 259.433594 279.023438 259.351562 278.589844 259.351562 C 222.398438 259.351562 198.238281 243.179688 187.65625 227.691406 C 177.074219 212.207031 179.773438 197.027344 179.773438 197.027344 C 179.851562 196.59375 179.839844 196.167969 179.746094 195.738281 C 179.648438 195.3125 179.476562 194.921875 179.226562 194.5625 C 178.976562 194.207031 178.664062 193.910156 178.296875 193.675781 C 177.925781 193.441406 177.527344 193.285156 177.097656 193.210938 Z M 177.097656 193.210938 " fill-opacity="1" fill-rule="nonzero"/><path fill="#6a1b1a" d="M 269.003906 253.539062 L 288.175781 253.539062 C 292.9375 253.539062 296.773438 257.375 296.773438 262.140625 C 296.773438 266.902344 292.9375 270.738281 288.175781 270.738281 L 269.003906 270.738281 C 264.238281 270.738281 260.402344 266.902344 260.402344 262.140625 C 260.402344 257.375 264.238281 253.539062 269.003906 253.539062 Z M 269.003906 253.539062 " fill-opacity="1" fill-rule="nonzero"/><path fill="#ffffff" d="M 269.34375 221.636719 C 268.820312 221.75 268.414062 222.035156 268.125 222.488281 C 267.984375 222.703125 267.894531 222.941406 267.847656 223.195312 C 267.804688 223.449219 267.808594 223.699219 267.863281 223.953125 C 267.917969 224.203125 268.019531 224.4375 268.167969 224.648438 C 268.316406 224.859375 268.5 225.035156 268.714844 225.171875 C 268.714844 225.171875 277.84375 230.851562 288.328125 225.25 C 288.554688 225.128906 288.753906 224.96875 288.914062 224.769531 C 289.078125 224.570312 289.199219 224.347656 289.273438 224.097656 C 289.347656 223.851562 289.371094 223.601562 289.347656 223.34375 C 289.324219 223.085938 289.25 222.84375 289.128906 222.617188 C 289.007812 222.390625 288.847656 222.195312 288.648438 222.03125 C 288.445312 221.867188 288.222656 221.75 287.976562 221.675781 C 287.730469 221.597656 287.480469 221.574219 287.222656 221.597656 C 286.964844 221.625 286.722656 221.699219 286.496094 221.820312 C 277.753906 226.492188 270.8125 221.894531 270.8125 221.894531 C 270.359375 221.605469 269.871094 221.519531 269.34375 221.636719 Z M 269.34375 221.636719 " fill-opacity="1" fill-rule="nonzero"/></svg>